<svg width="48" height="48" viewBox="0 0 48 48" fill="none" xmlns="http://www.w3.org/2000/svg">
<path d="M1.06735e-06 23.5857L15.0438 23.5857C19.9902 23.5857 24 19.5759 24 14.6296L24 0.0039073" stroke="currentColor" stroke-width="4.97562"/>
<path d="M48 23.9758L32.9562 23.9758C28.0098 23.9758 24 27.9856 24 32.932L24 47.5576" stroke="currentColor" stroke-width="4.97562"/>
<line y1="-2.48781" x2="14.4717" y2="-2.48781" transform="matrix(0.70291 -0.711279 -0.711279 -0.70291 4.82715 40.0273)" stroke="currentColor" stroke-width="4.97562"/>
<line y1="-2.48781" x2="14.4717" y2="-2.48781" transform="matrix(0.70291 -0.711279 -0.711279 -0.70291 30.2376 14.5273)" stroke="currentColor" stroke-width="4.97562"/>
<line y1="-2.48781" x2="14.4717" y2="-2.48781" transform="matrix(-0.707107 -0.707107 -0.707107 0.707107 14.4673 17.5352)" stroke="currentColor" stroke-width="4.97562"/>
<line y1="-2.48781" x2="14.4717" y2="-2.48781" transform="matrix(-0.707107 -0.707107 -0.707107 0.707107 40.4097 43.4141)" stroke="currentColor" stroke-width="4.97562"/>
</svg>